<svg width="16" height="17" viewBox="0 0 16 17" fill="none" xmlns="http://www.w3.org/2000/svg">
<path d="M0 3.25244H16V13.7474H0V3.25244Z" fill="#6DA544"/>
<path d="M1.77148 8.53791L7.96498 4.44141L14.2395 8.46941L8.04648 12.5489L1.77148 8.53791Z" fill="#FFDA44"/>
<path d="M8.00562 10.9859C9.38633 10.9859 10.5056 9.87085 10.5056 8.49538C10.5056 7.11992 9.38633 6.00488 8.00562 6.00488C6.6249 6.00488 5.50562 7.11992 5.50562 8.49538C5.50562 9.87085 6.6249 10.9859 8.00562 10.9859Z" fill="#F0F0F0"/>
<path d="M6.75562 8.33948C6.33184 8.33904 5.91042 8.40259 5.50562 8.52798C5.51395 9.05606 5.68932 9.56793 6.00656 9.99018C6.3238 10.4124 6.76661 10.7234 7.27149 10.8784C7.77637 11.0334 8.31738 11.0246 8.81692 10.8531C9.31646 10.6816 9.74886 10.3564 10.0521 9.92398C9.65675 9.42944 9.15515 9.03023 8.5845 8.75594C8.01384 8.48164 7.38877 8.33931 6.75562 8.33948Z" fill="#0052B4"/>
<path d="M10.4597 8.9725C10.5743 8.36811 10.462 7.74269 10.1444 7.21589C9.82671 6.68909 9.32598 6.29791 8.73798 6.11717C8.14997 5.93644 7.51596 5.97884 6.95726 6.23627C6.39856 6.49371 5.95439 6.94809 5.70972 7.5125C6.56036 7.33673 7.4416 7.37837 8.27188 7.63358C9.10216 7.88878 9.85465 8.34929 10.4597 8.9725Z" fill="#0052B4"/>
</svg>
