<svg width="50" height="50" viewBox="0 0 1440 2500" fill="none" xmlns="http://www.w3.org/2000/svg">
<path d="M1852 1250.22C1852 1104.88 1669.99 967.141 1390.93 881.725C1455.33 597.301 1426.71 371.014 1300.59 298.566C1271.52 281.572 1237.54 273.522 1200.42 273.522V373.25C1220.99 373.25 1237.54 377.275 1251.4 384.877C1312.22 419.759 1338.61 552.58 1318.03 723.413C1313.12 765.451 1305.07 809.724 1295.23 854.892C1207.57 833.426 1111.87 816.88 1011.25 806.147C950.877 723.413 888.268 648.282 825.212 582.543C971.001 447.039 1107.85 372.802 1200.87 372.802V273.075C1077.88 273.075 916.889 360.728 754.106 512.778C591.322 361.622 430.327 274.864 307.345 274.864V374.591C399.917 374.591 537.21 448.381 683 582.99C620.391 648.73 557.782 723.413 498.303 806.147C397.234 816.88 301.532 833.426 213.879 855.339C203.593 810.619 195.991 767.239 190.624 725.649C169.605 554.816 195.543 421.995 255.916 386.666C269.333 378.616 286.774 375.039 307.345 375.039V275.311C269.78 275.311 235.792 283.361 206.276 300.355C80.6111 372.802 52.437 598.642 117.282 882.172C-160.881 968.036 -342 1105.33 -342 1250.22C-342 1395.57 -159.987 1533.31 119.071 1618.72C54.6731 1903.15 83.2944 2129.43 209.407 2201.88C238.475 2218.87 272.463 2226.92 310.029 2226.92C433.011 2226.92 594.005 2139.27 756.789 1987.22C919.572 2138.38 1080.57 2225.14 1203.55 2225.14C1241.11 2225.14 1275.1 2217.09 1304.62 2200.09C1430.28 2127.64 1458.46 1901.8 1393.61 1618.28C1670.88 1532.86 1852 1395.12 1852 1250.22ZM1269.74 951.936C1253.19 1009.63 1232.62 1069.1 1209.36 1128.58C1191.03 1092.81 1171.8 1057.03 1150.78 1021.25C1130.21 985.477 1108.29 950.595 1086.38 916.607C1149.88 925.998 1211.15 937.626 1269.74 951.936ZM1064.91 1428.21C1030.03 1488.59 994.256 1545.83 957.138 1599.05C890.504 1604.86 822.976 1607.99 755 1607.99C687.472 1607.99 619.943 1604.86 553.757 1599.49C516.639 1546.27 480.415 1489.48 445.532 1429.55C411.545 1370.97 380.687 1311.49 352.513 1251.57C380.24 1191.64 411.545 1131.71 445.085 1073.13C479.968 1012.76 515.744 955.514 552.862 902.296C619.496 896.482 687.025 893.352 755 893.352C822.528 893.352 890.057 896.482 956.243 901.849C993.362 955.067 1029.59 1011.86 1064.47 1071.79C1098.46 1130.37 1129.31 1189.85 1157.49 1249.78C1129.31 1309.7 1098.46 1369.63 1064.91 1428.21ZM1209.36 1370.08C1233.51 1430 1254.08 1489.93 1271.08 1548.06C1212.49 1562.37 1150.78 1574.45 1086.83 1583.84C1108.74 1549.41 1130.65 1514.08 1151.23 1477.85C1171.8 1442.08 1191.03 1405.85 1209.36 1370.08ZM755.895 1847.25C714.304 1804.31 672.714 1756.46 631.571 1704.14C671.819 1705.93 712.963 1707.27 754.553 1707.27C796.59 1707.27 838.181 1706.38 878.877 1704.14C838.628 1756.46 797.038 1804.31 755.895 1847.25ZM423.172 1583.84C359.669 1574.45 298.401 1562.82 239.817 1548.51C256.364 1490.82 276.935 1431.34 300.19 1371.86C318.526 1407.64 337.755 1443.42 358.774 1479.19C379.793 1514.97 401.259 1549.85 423.172 1583.84ZM753.659 653.202C795.249 696.133 836.839 743.985 877.982 796.308C837.733 794.519 796.59 793.178 755 793.178C712.963 793.178 671.372 794.072 630.676 796.308C670.925 743.985 712.515 696.133 753.659 653.202ZM422.725 916.607C400.812 951.042 378.899 986.371 358.327 1022.59C337.755 1058.37 318.526 1094.15 300.19 1129.92C276.041 1070 255.469 1010.07 238.475 951.936C297.06 938.073 358.774 925.998 422.725 916.607ZM18.0021 1476.51C-140.309 1408.98 -242.72 1320.44 -242.72 1250.22C-242.72 1180.01 -140.309 1091.02 18.0021 1023.94C56.462 1007.39 98.4994 992.632 141.879 978.769C167.369 1066.42 200.91 1157.65 242.5 1251.12C201.357 1344.14 168.264 1434.92 143.22 1522.13C98.9467 1508.26 56.9092 1493.06 18.0021 1476.51ZM258.6 2115.57C197.78 2080.69 171.394 1947.87 191.966 1777.03C196.885 1735 204.935 1690.72 214.773 1645.55C302.426 1667.02 398.129 1683.57 498.75 1694.3C559.123 1777.03 621.732 1852.16 684.788 1917.9C538.999 2053.41 402.153 2127.64 309.134 2127.64C289.01 2127.2 272.016 2123.17 258.6 2115.57ZM1319.38 1774.8C1340.39 1945.63 1314.46 2078.45 1254.08 2113.78C1240.67 2121.83 1223.23 2125.41 1202.65 2125.41C1110.08 2125.41 972.79 2051.62 827.001 1917.01C889.61 1851.27 952.219 1776.59 1011.7 1693.85C1112.77 1683.12 1208.47 1666.57 1296.12 1644.66C1306.41 1689.83 1314.46 1733.21 1319.38 1774.8ZM1491.55 1476.51C1453.09 1493.06 1411.05 1507.82 1367.67 1521.68C1342.18 1434.03 1308.64 1342.8 1267.05 1249.33C1308.2 1156.31 1341.29 1065.53 1366.33 978.321C1410.61 992.185 1452.64 1007.39 1492 1023.94C1650.31 1091.46 1752.72 1180.01 1752.72 1250.22C1752.27 1320.44 1649.86 1409.43 1491.55 1476.51Z" fill="white"/>
<path d="M754.553 1454.6C867.425 1454.6 958.927 1363.1 958.927 1250.22C958.927 1137.35 867.425 1045.85 754.553 1045.85C641.68 1045.85 550.179 1137.35 550.179 1250.22C550.179 1363.1 641.68 1454.6 754.553 1454.6Z" fill="white"/>
</svg>
