<svg width="18" height="19" viewBox="0 0 18 19" fill="none" xmlns="http://www.w3.org/2000/svg">
<mask id="mask0_1_587" style="mask-type:luminance" maskUnits="userSpaceOnUse" x="1" y="4" width="16" height="11">
<path d="M1.23389 4.97009H16.766V14.0299H1.23389V4.97009Z" fill="white"/>
</mask>
<g mask="url(#mask0_1_587)">
<path d="M1.23389 13.3331H16.766V14.0299H1.23389V13.3331Z" fill="#F32837"/>
</g>
<mask id="mask1_1_587" style="mask-type:luminance" maskUnits="userSpaceOnUse" x="1" y="4" width="16" height="11">
<path d="M1.23389 4.97009H16.766V14.0299H1.23389V4.97009Z" fill="white"/>
</mask>
<g mask="url(#mask1_1_587)">
<path d="M1.23389 12.6362H16.766V13.3331H1.23389V12.6362Z" fill="#FFF5F5"/>
</g>
<mask id="mask2_1_587" style="mask-type:luminance" maskUnits="userSpaceOnUse" x="1" y="4" width="16" height="11">
<path d="M1.23389 4.97009H16.766V14.0299H1.23389V4.97009Z" fill="white"/>
</mask>
<g mask="url(#mask2_1_587)">
<path d="M1.23389 11.9398H16.766V12.6362H1.23389V11.9398Z" fill="#F32837"/>
</g>
<mask id="mask3_1_587" style="mask-type:luminance" maskUnits="userSpaceOnUse" x="1" y="4" width="16" height="11">
<path d="M1.23389 4.97009H16.766V14.0299H1.23389V4.97009Z" fill="white"/>
</mask>
<g mask="url(#mask3_1_587)">
<path d="M1.23389 11.243H16.766V11.9398H1.23389V11.243Z" fill="#FFF5F5"/>
</g>
<mask id="mask4_1_587" style="mask-type:luminance" maskUnits="userSpaceOnUse" x="1" y="4" width="16" height="11">
<path d="M1.23389 4.97009H16.766V14.0299H1.23389V4.97009Z" fill="white"/>
</mask>
<g mask="url(#mask4_1_587)">
<path d="M1.23389 10.5457H16.766V11.243H1.23389V10.5457Z" fill="#F32837"/>
</g>
<mask id="mask5_1_587" style="mask-type:luminance" maskUnits="userSpaceOnUse" x="1" y="4" width="16" height="11">
<path d="M1.23389 4.97009H16.766V14.0299H1.23389V4.97009Z" fill="white"/>
</mask>
<g mask="url(#mask5_1_587)">
<path d="M1.23389 9.84937H16.766V10.5457H1.23389V9.84937Z" fill="#FFF5F5"/>
</g>
<mask id="mask6_1_587" style="mask-type:luminance" maskUnits="userSpaceOnUse" x="1" y="4" width="16" height="11">
<path d="M1.23389 4.97009H16.766V14.0299H1.23389V4.97009Z" fill="white"/>
</mask>
<g mask="url(#mask6_1_587)">
<path d="M1.23389 9.15161H16.766V9.84936H1.23389V9.15161Z" fill="#F32837"/>
</g>
<mask id="mask7_1_587" style="mask-type:luminance" maskUnits="userSpaceOnUse" x="1" y="4" width="16" height="11">
<path d="M1.23389 4.97009H16.766V14.0299H1.23389V4.97009Z" fill="white"/>
</mask>
<g mask="url(#mask7_1_587)">
<path d="M1.23389 8.4552H16.766V9.1516H1.23389V8.4552Z" fill="#FFF5F5"/>
</g>
<mask id="mask8_1_587" style="mask-type:luminance" maskUnits="userSpaceOnUse" x="1" y="4" width="16" height="11">
<path d="M1.23389 4.97009H16.766V14.0299H1.23389V4.97009Z" fill="white"/>
</mask>
<g mask="url(#mask8_1_587)">
<path d="M1.23389 7.7583H16.766V8.45517H1.23389V7.7583Z" fill="#F32837"/>
</g>
<mask id="mask9_1_587" style="mask-type:luminance" maskUnits="userSpaceOnUse" x="1" y="4" width="16" height="11">
<path d="M1.23389 4.97009H16.766V14.0299H1.23389V4.97009Z" fill="white"/>
</mask>
<g mask="url(#mask9_1_587)">
<path d="M1.23389 7.06104H16.766V7.75831H1.23389V7.06104Z" fill="#FFF5F5"/>
</g>
<mask id="mask10_1_587" style="mask-type:luminance" maskUnits="userSpaceOnUse" x="1" y="4" width="16" height="11">
<path d="M1.23389 4.97009H16.766V14.0299H1.23389V4.97009Z" fill="white"/>
</mask>
<g mask="url(#mask10_1_587)">
<path d="M1.23389 6.36426H16.766V7.06113H1.23389V6.36426Z" fill="#F32837"/>
</g>
<mask id="mask11_1_587" style="mask-type:luminance" maskUnits="userSpaceOnUse" x="1" y="4" width="16" height="11">
<path d="M1.23389 4.97009H16.766V14.0299H1.23389V4.97009Z" fill="white"/>
</mask>
<g mask="url(#mask11_1_587)">
<path d="M1.23389 5.66736H16.766V6.36416H1.23389V5.66736Z" fill="#FFF5F5"/>
</g>
<mask id="mask12_1_587" style="mask-type:luminance" maskUnits="userSpaceOnUse" x="1" y="4" width="16" height="11">
<path d="M1.23389 4.97009H16.766V14.0299H1.23389V4.97009Z" fill="white"/>
</mask>
<g mask="url(#mask12_1_587)">
<path d="M1.23389 4.97009H16.766V5.66741H1.23389V4.97009Z" fill="#F32837"/>
</g>
<mask id="mask13_1_587" style="mask-type:luminance" maskUnits="userSpaceOnUse" x="1" y="4" width="16" height="11">
<path d="M1.23389 4.97009H16.766V14.0299H1.23389V4.97009Z" fill="white"/>
</mask>
<g mask="url(#mask13_1_587)">
<path d="M1.23389 4.97009H8.32706V9.84935H1.23389V4.97009Z" fill="#2A3560"/>
</g>
<mask id="mask14_1_587" style="mask-type:luminance" maskUnits="userSpaceOnUse" x="1" y="4" width="16" height="11">
<path d="M1.23389 4.97009H16.766V14.0299H1.23389V4.97009Z" fill="white"/>
</mask>
<g mask="url(#mask14_1_587)">
<path d="M1.87466 5.50781L1.93523 5.69265H2.12954L1.97227 5.80652L2.03196 5.99093L1.87466 5.87706L1.71741 5.99093L1.77888 5.80652L1.62158 5.69265H1.81409L1.87466 5.50781Z" fill="#FFF5F5"/>
</g>
<mask id="mask15_1_587" style="mask-type:luminance" maskUnits="userSpaceOnUse" x="1" y="4" width="16" height="11">
<path d="M1.23389 4.97009H16.766V14.0299H1.23389V4.97009Z" fill="white"/>
</mask>
<g mask="url(#mask15_1_587)">
<path d="M1.87466 6.32263L1.93523 6.50655H2.12954L1.97227 6.61997L2.03196 6.80523L1.87466 6.69096L1.71741 6.80523L1.77888 6.61997L1.62158 6.50655H1.81409L1.87466 6.32263Z" fill="#FFF5F5"/>
</g>
<mask id="mask16_1_587" style="mask-type:luminance" maskUnits="userSpaceOnUse" x="1" y="4" width="16" height="11">
<path d="M1.23389 4.97009H16.766V14.0299H1.23389V4.97009Z" fill="white"/>
</mask>
<g mask="url(#mask16_1_587)">
<path d="M1.87466 7.13696L1.93523 7.3209H2.12954L1.97227 7.4348L2.03196 7.61961L1.87466 7.50527L1.71741 7.61961L1.77888 7.4348L1.62158 7.3209H1.81409L1.87466 7.13696Z" fill="#FFF5F5"/>
</g>
<mask id="mask17_1_587" style="mask-type:luminance" maskUnits="userSpaceOnUse" x="1" y="4" width="16" height="11">
<path d="M1.23389 4.97009H16.766V14.0299H1.23389V4.97009Z" fill="white"/>
</mask>
<g mask="url(#mask17_1_587)">
<path d="M1.87466 7.95093L1.93523 8.13574H2.12954L1.97227 8.24962L2.03196 8.43358L1.87466 8.32015L1.71741 8.43358L1.77888 8.24962L1.62158 8.13574H1.81409L1.87466 7.95093Z" fill="#FFF5F5"/>
</g>
<mask id="mask18_1_587" style="mask-type:luminance" maskUnits="userSpaceOnUse" x="1" y="4" width="16" height="11">
<path d="M1.23389 4.97009H16.766V14.0299H1.23389V4.97009Z" fill="white"/>
</mask>
<g mask="url(#mask18_1_587)">
<path d="M1.87466 8.76526L1.93523 8.95055H2.12954L1.97227 9.0635L2.03196 9.24791L1.87466 9.13403L1.71741 9.24791L1.77888 9.0635L1.62158 8.95055H1.81409L1.87466 8.76526Z" fill="#FFF5F5"/>
</g>
<mask id="mask19_1_587" style="mask-type:luminance" maskUnits="userSpaceOnUse" x="1" y="4" width="16" height="11">
<path d="M1.23389 4.97009H16.766V14.0299H1.23389V4.97009Z" fill="white"/>
</mask>
<g mask="url(#mask19_1_587)">
<path d="M2.44223 5.93677L2.50008 6.12158H2.69527L2.53896 6.23593L2.59769 6.41982L2.44223 6.3064L2.28588 6.41982L2.34461 6.23593L2.18823 6.12158H2.38259L2.44223 5.93677Z" fill="#FFF5F5"/>
</g>
<mask id="mask20_1_587" style="mask-type:luminance" maskUnits="userSpaceOnUse" x="1" y="4" width="16" height="11">
<path d="M1.23389 4.97009H16.766V14.0299H1.23389V4.97009Z" fill="white"/>
</mask>
<g mask="url(#mask20_1_587)">
<path d="M2.44223 6.75146L2.50008 6.9354H2.69527L2.53896 7.04975L2.59769 7.23364L2.44223 7.12069L2.28588 7.23364L2.34461 7.04975L2.18823 6.9354H2.38259L2.44223 6.75146Z" fill="#FFF5F5"/>
</g>
<mask id="mask21_1_587" style="mask-type:luminance" maskUnits="userSpaceOnUse" x="1" y="4" width="16" height="11">
<path d="M1.23389 4.97009H16.766V14.0299H1.23389V4.97009Z" fill="white"/>
</mask>
<g mask="url(#mask21_1_587)">
<path d="M2.44223 7.5658L2.50008 7.75016H2.69527L2.53896 7.86403L2.59769 8.04844L2.44223 7.93457L2.28588 8.04844L2.34461 7.86403L2.18823 7.75016H2.38259L2.44223 7.5658Z" fill="#FFF5F5"/>
</g>
<mask id="mask22_1_587" style="mask-type:luminance" maskUnits="userSpaceOnUse" x="1" y="4" width="16" height="11">
<path d="M1.23389 4.97009H16.766V14.0299H1.23389V4.97009Z" fill="white"/>
</mask>
<g mask="url(#mask22_1_587)">
<path d="M2.44223 8.38062L2.50008 8.56455H2.69527L2.53896 8.67845L2.59769 8.86238L2.44223 8.74804L2.28588 8.86238L2.34461 8.67845L2.18823 8.56455H2.38259L2.44223 8.38062Z" fill="#FFF5F5"/>
</g>
<mask id="mask23_1_587" style="mask-type:luminance" maskUnits="userSpaceOnUse" x="1" y="4" width="16" height="11">
<path d="M1.23389 4.97009H16.766V14.0299H1.23389V4.97009Z" fill="white"/>
</mask>
<g mask="url(#mask23_1_587)">
<path d="M3.01529 5.50781L3.07581 5.69265H3.27012L3.11289 5.80652L3.17342 5.99093L3.01529 5.87706L2.85981 5.99093L2.91946 5.80652L2.76221 5.69265H2.95559L3.01529 5.50781Z" fill="#FFF5F5"/>
</g>
<mask id="mask24_1_587" style="mask-type:luminance" maskUnits="userSpaceOnUse" x="1" y="4" width="16" height="11">
<path d="M1.23389 4.97009H16.766V14.0299H1.23389V4.97009Z" fill="white"/>
</mask>
<g mask="url(#mask24_1_587)">
<path d="M3.01529 6.32263L3.07581 6.50655H3.27012L3.11289 6.61997L3.17342 6.80523L3.01529 6.69096L2.85981 6.80523L2.91946 6.61997L2.76221 6.50655H2.95559L3.01529 6.32263Z" fill="#FFF5F5"/>
</g>
<mask id="mask25_1_587" style="mask-type:luminance" maskUnits="userSpaceOnUse" x="1" y="4" width="16" height="11">
<path d="M1.23389 4.97009H16.766V14.0299H1.23389V4.97009Z" fill="white"/>
</mask>
<g mask="url(#mask25_1_587)">
<path d="M3.01529 7.13696L3.07581 7.3209H3.27012L3.11289 7.4348L3.17342 7.61961L3.01529 7.50527L2.85981 7.61961L2.91946 7.4348L2.76221 7.3209H2.95559L3.01529 7.13696Z" fill="#FFF5F5"/>
</g>
<mask id="mask26_1_587" style="mask-type:luminance" maskUnits="userSpaceOnUse" x="1" y="4" width="16" height="11">
<path d="M1.23389 4.97009H16.766V14.0299H1.23389V4.97009Z" fill="white"/>
</mask>
<g mask="url(#mask26_1_587)">
<path d="M3.01529 7.95093L3.07581 8.13574H3.27012L3.11289 8.24962L3.17342 8.43358L3.01529 8.32015L2.85981 8.43358L2.91946 8.24962L2.76221 8.13574H2.95559L3.01529 7.95093Z" fill="#FFF5F5"/>
</g>
<mask id="mask27_1_587" style="mask-type:luminance" maskUnits="userSpaceOnUse" x="1" y="4" width="16" height="11">
<path d="M1.23389 4.97009H16.766V14.0299H1.23389V4.97009Z" fill="white"/>
</mask>
<g mask="url(#mask27_1_587)">
<path d="M3.01529 8.76526L3.07581 8.95055H3.27012L3.11289 9.0635L3.17342 9.24791L3.01529 9.13403L2.85981 9.24791L2.91946 9.0635L2.76221 8.95055H2.95559L3.01529 8.76526Z" fill="#FFF5F5"/>
</g>
<mask id="mask28_1_587" style="mask-type:luminance" maskUnits="userSpaceOnUse" x="1" y="4" width="16" height="11">
<path d="M1.23389 4.97009H16.766V14.0299H1.23389V4.97009Z" fill="white"/>
</mask>
<g mask="url(#mask28_1_587)">
<path d="M3.58281 5.93677L3.64246 6.12158H3.8377L3.67954 6.23593L3.74011 6.41982L3.58281 6.3064L3.42646 6.41982L3.48703 6.23593L3.32886 6.12158H3.52317L3.58281 5.93677Z" fill="#FFF5F5"/>
</g>
<mask id="mask29_1_587" style="mask-type:luminance" maskUnits="userSpaceOnUse" x="1" y="4" width="16" height="11">
<path d="M1.23389 4.97009H16.766V14.0299H1.23389V4.97009Z" fill="white"/>
</mask>
<g mask="url(#mask29_1_587)">
<path d="M3.58281 6.75146L3.64246 6.9354H3.8377L3.67954 7.04975L3.74011 7.23364L3.58281 7.12069L3.42646 7.23364L3.48703 7.04975L3.32886 6.9354H3.52317L3.58281 6.75146Z" fill="#FFF5F5"/>
</g>
<mask id="mask30_1_587" style="mask-type:luminance" maskUnits="userSpaceOnUse" x="1" y="4" width="16" height="11">
<path d="M1.23389 4.97009H16.766V14.0299H1.23389V4.97009Z" fill="white"/>
</mask>
<g mask="url(#mask30_1_587)">
<path d="M3.58281 7.5658L3.64246 7.75016H3.8377L3.67954 7.86403L3.74011 8.04844L3.58281 7.93457L3.42646 8.04844L3.48703 7.86403L3.32886 7.75016H3.52317L3.58281 7.5658Z" fill="#FFF5F5"/>
</g>
<mask id="mask31_1_587" style="mask-type:luminance" maskUnits="userSpaceOnUse" x="1" y="4" width="16" height="11">
<path d="M1.23389 4.97009H16.766V14.0299H1.23389V4.97009Z" fill="white"/>
</mask>
<g mask="url(#mask31_1_587)">
<path d="M3.58281 8.38062L3.64246 8.56455H3.8377L3.67954 8.67845L3.74011 8.86238L3.58281 8.74804L3.42646 8.86238L3.48703 8.67845L3.32886 8.56455H3.52317L3.58281 8.38062Z" fill="#FFF5F5"/>
</g>
<mask id="mask32_1_587" style="mask-type:luminance" maskUnits="userSpaceOnUse" x="1" y="4" width="16" height="11">
<path d="M1.23389 4.97009H16.766V14.0299H1.23389V4.97009Z" fill="white"/>
</mask>
<g mask="url(#mask32_1_587)">
<path d="M4.15762 5.50781L4.21819 5.69265H4.4107L4.25343 5.80652L4.3158 5.99093L4.15762 5.87706L4.00039 5.99093L4.06004 5.80652L3.90454 5.69265H4.09797L4.15762 5.50781Z" fill="#FFF5F5"/>
</g>
<mask id="mask33_1_587" style="mask-type:luminance" maskUnits="userSpaceOnUse" x="1" y="4" width="16" height="11">
<path d="M1.23389 4.97009H16.766V14.0299H1.23389V4.97009Z" fill="white"/>
</mask>
<g mask="url(#mask33_1_587)">
<path d="M4.15762 6.32263L4.21819 6.50655H4.4107L4.25343 6.61997L4.3158 6.80523L4.15762 6.69096L4.00039 6.80523L4.06004 6.61997L3.90454 6.50655H4.09797L4.15762 6.32263Z" fill="#FFF5F5"/>
</g>
<mask id="mask34_1_587" style="mask-type:luminance" maskUnits="userSpaceOnUse" x="1" y="4" width="16" height="11">
<path d="M1.23389 4.97009H16.766V14.0299H1.23389V4.97009Z" fill="white"/>
</mask>
<g mask="url(#mask34_1_587)">
<path d="M4.15762 7.13696L4.21819 7.3209H4.4107L4.25343 7.4348L4.3158 7.61961L4.15762 7.50527L4.00039 7.61961L4.06004 7.4348L3.90454 7.3209H4.09797L4.15762 7.13696Z" fill="#FFF5F5"/>
</g>
<mask id="mask35_1_587" style="mask-type:luminance" maskUnits="userSpaceOnUse" x="1" y="4" width="16" height="11">
<path d="M1.23389 4.97009H16.766V14.0299H1.23389V4.97009Z" fill="white"/>
</mask>
<g mask="url(#mask35_1_587)">
<path d="M4.15762 7.95093L4.21819 8.13574H4.4107L4.25343 8.24962L4.3158 8.43358L4.15762 8.32015L4.00039 8.43358L4.06004 8.24962L3.90454 8.13574H4.09797L4.15762 7.95093Z" fill="#FFF5F5"/>
</g>
<mask id="mask36_1_587" style="mask-type:luminance" maskUnits="userSpaceOnUse" x="1" y="4" width="16" height="11">
<path d="M1.23389 4.97009H16.766V14.0299H1.23389V4.97009Z" fill="white"/>
</mask>
<g mask="url(#mask36_1_587)">
<path d="M4.15762 8.76526L4.21819 8.95055H4.4107L4.25343 9.0635L4.3158 9.24791L4.15762 9.13403L4.00039 9.24791L4.06004 9.0635L3.90454 8.95055H4.09797L4.15762 8.76526Z" fill="#FFF5F5"/>
</g>
<mask id="mask37_1_587" style="mask-type:luminance" maskUnits="userSpaceOnUse" x="1" y="4" width="16" height="11">
<path d="M1.23389 4.97009H16.766V14.0299H1.23389V4.97009Z" fill="white"/>
</mask>
<g mask="url(#mask37_1_587)">
<path d="M4.72546 5.93677L4.78511 6.12158H4.97847L4.82212 6.23593L4.88089 6.41982L4.72546 6.3064L4.56909 6.41982L4.62781 6.23593L4.47144 6.12158H4.66487L4.72546 5.93677Z" fill="#FFF5F5"/>
</g>
<mask id="mask38_1_587" style="mask-type:luminance" maskUnits="userSpaceOnUse" x="1" y="4" width="16" height="11">
<path d="M1.23389 4.97009H16.766V14.0299H1.23389V4.97009Z" fill="white"/>
</mask>
<g mask="url(#mask38_1_587)">
<path d="M4.72546 6.75146L4.78511 6.9354H4.97847L4.82212 7.04975L4.88089 7.23364L4.72546 7.12069L4.56909 7.23364L4.62781 7.04975L4.47144 6.9354H4.66487L4.72546 6.75146Z" fill="#FFF5F5"/>
</g>
<mask id="mask39_1_587" style="mask-type:luminance" maskUnits="userSpaceOnUse" x="1" y="4" width="16" height="11">
<path d="M1.23389 4.97009H16.766V14.0299H1.23389V4.97009Z" fill="white"/>
</mask>
<g mask="url(#mask39_1_587)">
<path d="M4.72546 7.5658L4.78511 7.75016H4.97847L4.82212 7.86403L4.88089 8.04844L4.72546 7.93457L4.56909 8.04844L4.62781 7.86403L4.47144 7.75016H4.66487L4.72546 7.5658Z" fill="#FFF5F5"/>
</g>
<mask id="mask40_1_587" style="mask-type:luminance" maskUnits="userSpaceOnUse" x="1" y="4" width="16" height="11">
<path d="M1.23389 4.97009H16.766V14.0299H1.23389V4.97009Z" fill="white"/>
</mask>
<g mask="url(#mask40_1_587)">
<path d="M4.72546 8.38062L4.78511 8.56455H4.97847L4.82212 8.67845L4.88089 8.86238L4.72546 8.74804L4.56909 8.86238L4.62781 8.67845L4.47144 8.56455H4.66487L4.72546 8.38062Z" fill="#FFF5F5"/>
</g>
<mask id="mask41_1_587" style="mask-type:luminance" maskUnits="userSpaceOnUse" x="1" y="4" width="16" height="11">
<path d="M1.23389 4.97009H16.766V14.0299H1.23389V4.97009Z" fill="white"/>
</mask>
<g mask="url(#mask41_1_587)">
<path d="M5.29845 5.50781L5.35902 5.69265H5.55245L5.3961 5.80652L5.45662 5.99093L5.29845 5.87706L5.14302 5.99093L5.20179 5.80652L5.04541 5.69265H5.2388L5.29845 5.50781Z" fill="#FFF5F5"/>
</g>
<mask id="mask42_1_587" style="mask-type:luminance" maskUnits="userSpaceOnUse" x="1" y="4" width="16" height="11">
<path d="M1.23389 4.97009H16.766V14.0299H1.23389V4.97009Z" fill="white"/>
</mask>
<g mask="url(#mask42_1_587)">
<path d="M5.29845 6.32263L5.35902 6.50655H5.55245L5.3961 6.61997L5.45662 6.80523L5.29845 6.69096L5.14302 6.80523L5.20179 6.61997L5.04541 6.50655H5.2388L5.29845 6.32263Z" fill="#FFF5F5"/>
</g>
<mask id="mask43_1_587" style="mask-type:luminance" maskUnits="userSpaceOnUse" x="1" y="4" width="16" height="11">
<path d="M1.23389 4.97009H16.766V14.0299H1.23389V4.97009Z" fill="white"/>
</mask>
<g mask="url(#mask43_1_587)">
<path d="M5.29845 7.13696L5.35902 7.3209H5.55245L5.3961 7.4348L5.45662 7.61961L5.29845 7.50527L5.14302 7.61961L5.20179 7.4348L5.04541 7.3209H5.2388L5.29845 7.13696Z" fill="#FFF5F5"/>
</g>
<mask id="mask44_1_587" style="mask-type:luminance" maskUnits="userSpaceOnUse" x="1" y="4" width="16" height="11">
<path d="M1.23389 4.97009H16.766V14.0299H1.23389V4.97009Z" fill="white"/>
</mask>
<g mask="url(#mask44_1_587)">
<path d="M5.29845 7.95093L5.35902 8.13574H5.55245L5.3961 8.24962L5.45662 8.43358L5.29845 8.32015L5.14302 8.43358L5.20179 8.24962L5.04541 8.13574H5.2388L5.29845 7.95093Z" fill="#FFF5F5"/>
</g>
<mask id="mask45_1_587" style="mask-type:luminance" maskUnits="userSpaceOnUse" x="1" y="4" width="16" height="11">
<path d="M1.23389 4.97009H16.766V14.0299H1.23389V4.97009Z" fill="white"/>
</mask>
<g mask="url(#mask45_1_587)">
<path d="M5.29845 8.76526L5.35902 8.95055H5.55245L5.3961 9.0635L5.45662 9.24791L5.29845 9.13403L5.14302 9.24791L5.20179 9.0635L5.04541 8.95055H5.2388L5.29845 8.76526Z" fill="#FFF5F5"/>
</g>
<mask id="mask46_1_587" style="mask-type:luminance" maskUnits="userSpaceOnUse" x="1" y="4" width="16" height="11">
<path d="M1.23389 4.97009H16.766V14.0299H1.23389V4.97009Z" fill="white"/>
</mask>
<g mask="url(#mask46_1_587)">
<path d="M5.86587 5.93677L5.92552 6.12158H6.12075L5.96346 6.23593L6.02315 6.41982L5.86587 6.3064L5.7095 6.41982L5.77007 6.23593L5.61279 6.12158H5.80715L5.86587 5.93677Z" fill="#FFF5F5"/>
</g>
<mask id="mask47_1_587" style="mask-type:luminance" maskUnits="userSpaceOnUse" x="1" y="4" width="16" height="11">
<path d="M1.23389 4.97009H16.766V14.0299H1.23389V4.97009Z" fill="white"/>
</mask>
<g mask="url(#mask47_1_587)">
<path d="M5.86587 6.75146L5.92552 6.9354H6.12075L5.96346 7.04975L6.02315 7.23364L5.86587 7.12069L5.7095 7.23364L5.77007 7.04975L5.61279 6.9354H5.80715L5.86587 6.75146Z" fill="#FFF5F5"/>
</g>
<mask id="mask48_1_587" style="mask-type:luminance" maskUnits="userSpaceOnUse" x="1" y="4" width="16" height="11">
<path d="M1.23389 4.97009H16.766V14.0299H1.23389V4.97009Z" fill="white"/>
</mask>
<g mask="url(#mask48_1_587)">
<path d="M5.86587 7.5658L5.92552 7.75016H6.12075L5.96346 7.86403L6.02315 8.04844L5.86587 7.93457L5.7095 8.04844L5.77007 7.86403L5.61279 7.75016H5.80715L5.86587 7.5658Z" fill="#FFF5F5"/>
</g>
<mask id="mask49_1_587" style="mask-type:luminance" maskUnits="userSpaceOnUse" x="1" y="4" width="16" height="11">
<path d="M1.23389 4.97009H16.766V14.0299H1.23389V4.97009Z" fill="white"/>
</mask>
<g mask="url(#mask49_1_587)">
<path d="M5.86587 8.38062L5.92552 8.56455H6.12075L5.96346 8.67845L6.02315 8.86238L5.86587 8.74804L5.7095 8.86238L5.77007 8.67845L5.61279 8.56455H5.80715L5.86587 8.38062Z" fill="#FFF5F5"/>
</g>
<mask id="mask50_1_587" style="mask-type:luminance" maskUnits="userSpaceOnUse" x="1" y="4" width="16" height="11">
<path d="M1.23389 4.97009H16.766V14.0299H1.23389V4.97009Z" fill="white"/>
</mask>
<g mask="url(#mask50_1_587)">
<path d="M6.44082 5.50781L6.50139 5.69265H6.69478L6.53841 5.80652L6.59718 5.99093L6.44082 5.87706L6.28537 5.99093L6.3441 5.80652L6.18774 5.69265H6.38115L6.44082 5.50781Z" fill="#FFF5F5"/>
</g>
<mask id="mask51_1_587" style="mask-type:luminance" maskUnits="userSpaceOnUse" x="1" y="4" width="16" height="11">
<path d="M1.23389 4.97009H16.766V14.0299H1.23389V4.97009Z" fill="white"/>
</mask>
<g mask="url(#mask51_1_587)">
<path d="M6.44082 6.32263L6.50139 6.50655H6.69478L6.53841 6.61997L6.59718 6.80523L6.44082 6.69096L6.28537 6.80523L6.3441 6.61997L6.18774 6.50655H6.38115L6.44082 6.32263Z" fill="#FFF5F5"/>
</g>
<mask id="mask52_1_587" style="mask-type:luminance" maskUnits="userSpaceOnUse" x="1" y="4" width="16" height="11">
<path d="M1.23389 4.97009H16.766V14.0299H1.23389V4.97009Z" fill="white"/>
</mask>
<g mask="url(#mask52_1_587)">
<path d="M6.44082 7.13696L6.50139 7.3209H6.69478L6.53841 7.4348L6.59718 7.61961L6.44082 7.50527L6.28537 7.61961L6.3441 7.4348L6.18774 7.3209H6.38115L6.44082 7.13696Z" fill="#FFF5F5"/>
</g>
<mask id="mask53_1_587" style="mask-type:luminance" maskUnits="userSpaceOnUse" x="1" y="4" width="16" height="11">
<path d="M1.23389 4.97009H16.766V14.0299H1.23389V4.97009Z" fill="white"/>
</mask>
<g mask="url(#mask53_1_587)">
<path d="M6.44082 7.95093L6.50139 8.13574H6.69478L6.53841 8.24962L6.59718 8.43358L6.44082 8.32015L6.28537 8.43358L6.3441 8.24962L6.18774 8.13574H6.38115L6.44082 7.95093Z" fill="#FFF5F5"/>
</g>
<mask id="mask54_1_587" style="mask-type:luminance" maskUnits="userSpaceOnUse" x="1" y="4" width="16" height="11">
<path d="M1.23389 4.97009H16.766V14.0299H1.23389V4.97009Z" fill="white"/>
</mask>
<g mask="url(#mask54_1_587)">
<path d="M6.44082 8.76526L6.50139 8.95055H6.69478L6.53841 9.0635L6.59718 9.24791L6.44082 9.13403L6.28537 9.24791L6.3441 9.0635L6.18774 8.95055H6.38115L6.44082 8.76526Z" fill="#FFF5F5"/>
</g>
<mask id="mask55_1_587" style="mask-type:luminance" maskUnits="userSpaceOnUse" x="1" y="4" width="16" height="11">
<path d="M1.23389 4.97009H16.766V14.0299H1.23389V4.97009Z" fill="white"/>
</mask>
<g mask="url(#mask55_1_587)">
<path d="M7.00845 5.93677L7.06718 6.12158H7.26149L7.10603 6.23593L7.16388 6.41982L7.00845 6.3064L6.85028 6.41982L6.9108 6.23593L6.75537 6.12158H6.94788L7.00845 5.93677Z" fill="#FFF5F5"/>
</g>
<mask id="mask56_1_587" style="mask-type:luminance" maskUnits="userSpaceOnUse" x="1" y="4" width="16" height="11">
<path d="M1.23389 4.97009H16.766V14.0299H1.23389V4.97009Z" fill="white"/>
</mask>
<g mask="url(#mask56_1_587)">
<path d="M7.00845 6.75146L7.06718 6.9354H7.26149L7.10603 7.04975L7.16388 7.23364L7.00845 7.12069L6.85028 7.23364L6.9108 7.04975L6.75537 6.9354H6.94788L7.00845 6.75146Z" fill="#FFF5F5"/>
</g>
<mask id="mask57_1_587" style="mask-type:luminance" maskUnits="userSpaceOnUse" x="1" y="4" width="16" height="11">
<path d="M1.23389 4.97009H16.766V14.0299H1.23389V4.97009Z" fill="white"/>
</mask>
<g mask="url(#mask57_1_587)">
<path d="M7.00845 7.5658L7.06718 7.75016H7.26149L7.10603 7.86403L7.16388 8.04844L7.00845 7.93457L6.85028 8.04844L6.9108 7.86403L6.75537 7.75016H6.94788L7.00845 7.5658Z" fill="#FFF5F5"/>
</g>
<mask id="mask58_1_587" style="mask-type:luminance" maskUnits="userSpaceOnUse" x="1" y="4" width="16" height="11">
<path d="M1.23389 4.97009H16.766V14.0299H1.23389V4.97009Z" fill="white"/>
</mask>
<g mask="url(#mask58_1_587)">
<path d="M7.00845 8.38062L7.06718 8.56455H7.26149L7.10603 8.67845L7.16388 8.86238L7.00845 8.74804L6.85028 8.86238L6.9108 8.67845L6.75537 8.56455H6.94788L7.00845 8.38062Z" fill="#FFF5F5"/>
</g>
<mask id="mask59_1_587" style="mask-type:luminance" maskUnits="userSpaceOnUse" x="1" y="4" width="16" height="11">
<path d="M1.23389 4.97009H16.766V14.0299H1.23389V4.97009Z" fill="white"/>
</mask>
<g mask="url(#mask59_1_587)">
<path d="M7.5814 5.50781L7.6429 5.69265H7.83541L7.67903 5.80652L7.73956 5.99093L7.5814 5.87706L7.42595 5.99093L7.48472 5.80652L7.32837 5.69265H7.52176L7.5814 5.50781Z" fill="#FFF5F5"/>
</g>
<mask id="mask60_1_587" style="mask-type:luminance" maskUnits="userSpaceOnUse" x="1" y="4" width="16" height="11">
<path d="M1.23389 4.97009H16.766V14.0299H1.23389V4.97009Z" fill="white"/>
</mask>
<g mask="url(#mask60_1_587)">
<path d="M7.5814 6.32263L7.6429 6.50655H7.83541L7.67903 6.61997L7.73956 6.80523L7.5814 6.69096L7.42595 6.80523L7.48472 6.61997L7.32837 6.50655H7.52176L7.5814 6.32263Z" fill="#FFF5F5"/>
</g>
<mask id="mask61_1_587" style="mask-type:luminance" maskUnits="userSpaceOnUse" x="1" y="4" width="16" height="11">
<path d="M1.23389 4.97009H16.766V14.0299H1.23389V4.97009Z" fill="white"/>
</mask>
<g mask="url(#mask61_1_587)">
<path d="M7.5814 7.13696L7.6429 7.3209H7.83541L7.67903 7.4348L7.73956 7.61961L7.5814 7.50527L7.42595 7.61961L7.48472 7.4348L7.32837 7.3209H7.52176L7.5814 7.13696Z" fill="#FFF5F5"/>
</g>
<mask id="mask62_1_587" style="mask-type:luminance" maskUnits="userSpaceOnUse" x="1" y="4" width="16" height="11">
<path d="M1.23389 4.97009H16.766V14.0299H1.23389V4.97009Z" fill="white"/>
</mask>
<g mask="url(#mask62_1_587)">
<path d="M7.5814 7.95093L7.6429 8.13574H7.83541L7.67903 8.24962L7.73956 8.43358L7.5814 8.32015L7.42595 8.43358L7.48472 8.24962L7.32837 8.13574H7.52176L7.5814 7.95093Z" fill="#FFF5F5"/>
</g>
<mask id="mask63_1_587" style="mask-type:luminance" maskUnits="userSpaceOnUse" x="1" y="4" width="16" height="11">
<path d="M1.23389 4.97009H16.766V14.0299H1.23389V4.97009Z" fill="white"/>
</mask>
<g mask="url(#mask63_1_587)">
<path d="M7.5814 8.76526L7.6429 8.95055H7.83541L7.67903 9.0635L7.73956 9.24791L7.5814 9.13403L7.42595 9.24791L7.48472 9.0635L7.32837 8.95055H7.52176L7.5814 8.76526Z" fill="#FFF5F5"/>
</g>
</svg>
